<?xml version="1.0" standalone="no"?>
<!DOCTYPE svg PUBLIC "-//W3C//DTD SVG 20010904//EN"
 "http://www.w3.org/TR/2001/REC-SVG-20010904/DTD/svg10.dtd">
<svg version="1.0" xmlns="http://www.w3.org/2000/svg"
 width="1280.000000pt" height="782.000000pt" viewBox="0 0 1280.000000 782.000000"
 preserveAspectRatio="xMidYMid meet">
<metadata>
Created by potrace 1.15, written by Peter Selinger 2001-2017
</metadata>
<g transform="translate(0.000000,782.000000) scale(0.100000,-0.100000)"
fill="#000000" stroke="none">
<path d="M10230 7806 c0 -9 5 -16 10 -16 6 0 10 4 10 9 0 6 -4 13 -10 16 -5 3
-10 -1 -10 -9z"/>
<path d="M10840 7812 c-29 -4 -70 -39 -70 -59 0 -15 26 -18 35 -3 12 19 35 10
51 -22 l16 -32 15 28 c12 24 17 26 31 14 9 -7 21 -19 25 -25 14 -22 29 -15 22
10 -9 27 -61 84 -84 89 -9 2 -27 2 -41 0z"/>
<path d="M10228 7756 c-27 -48 -69 -106 -77 -106 -4 0 -28 17 -52 38 -24 21
-57 43 -74 50 -38 14 -138 32 -181 32 -62 0 -43 -44 37 -85 25 -13 51 -31 58
-39 8 -9 19 -16 26 -16 9 0 133 -84 153 -104 1 -2 -7 -32 -18 -67 -11 -35 -20
-65 -20 -66 0 -2 13 -3 28 -3 38 0 58 17 76 65 8 22 26 67 40 101 22 53 24 65
14 97 -8 26 -8 50 -1 82 12 51 10 55 -9 21z"/>
<path d="M1951 7718 c60 -77 167 -174 224 -202 59 -29 59 -28 19 -83 -30 -39
-30 -48 -2 -67 52 -37 108 -13 108 46 1 44 19 53 115 55 50 1 108 7 130 14 40
12 145 56 145 62 0 1 -17 1 -37 0 -21 -2 -99 2 -173 9 l-135 13 -3 28 c-4 29
-26 37 -36 12 -3 -8 -14 -15 -25 -15 -10 0 -95 38 -187 85 -93 47 -171 85
-172 85 -2 0 11 -19 29 -42z"/>
<path d="M10919 7296 c-49 -13 -133 -58 -146 -79 -19 -30 -10 -33 79 -29 87 4
90 4 119 -24 36 -35 36 -45 -1 -87 -16 -19 -30 -37 -30 -40 0 -4 16 -9 35 -13
39 -7 85 15 85 41 0 8 12 25 26 38 14 12 35 39 45 60 11 21 24 35 29 32 13 -8
23 33 16 71 -10 48 -20 49 -56 4 -17 -22 -38 -40 -45 -40 -7 0 -26 15 -42 34
-35 42 -55 48 -114 32z"/>
<path d="M5965 7254 c-17 -13 -34 -24 -39 -24 -16 0 -131 -88 -176 -136 l-45
-47 78 43 c43 23 81 40 84 37 3 -4 -9 -24 -26 -46 l-32 -40 36 -7 c44 -8 63
-1 75 30 5 13 18 31 30 39 20 14 27 13 74 -3 29 -10 61 -23 72 -28 32 -18 185
-63 202 -60 11 2 2 14 -28 38 -25 19 -62 49 -82 67 -21 18 -69 48 -108 68 -58
29 -70 39 -70 60 0 34 -11 36 -45 9z"/>
<path d="M10544 7156 c-4 -10 12 -39 40 -77 25 -33 46 -70 46 -80 0 -18 -8
-23 -69 -44 -11 -4 -11 -8 -1 -21 7 -8 20 -12 29 -9 9 4 36 10 60 15 42 8 47
6 72 -21 32 -34 42 -36 68 -10 20 20 19 52 -1 78 -5 7 -7 17 -3 24 9 14 -12
29 -42 29 -16 0 -23 6 -23 19 0 22 -51 68 -95 86 -61 25 -75 27 -81 11z"/>
<path d="M9882 6939 c3 -15 12 -20 108 -68 36 -18 72 -36 80 -40 8 -4 18 -23
23 -41 5 -19 15 -43 23 -54 20 -29 18 -36 -11 -36 -21 0 -25 -5 -25 -30 0 -33
28 -58 70 -62 20 -2 26 2 28 20 3 22 5 22 38 -16 19 -22 53 -51 77 -64 80 -45
89 -11 23 85 -69 100 -55 148 61 212 69 38 86 52 77 67 -9 13 -73 9 -105 -7
-16 -9 -33 -14 -38 -11 -4 3 -17 -1 -27 -9 -33 -25 -65 -18 -107 23 l-38 37
-130 4 c-103 2 -129 0 -127 -10z"/>
<path d="M8127 6885 c-20 -17 -40 -25 -67 -25 -29 0 -43 -6 -59 -25 -30 -39
-123 -225 -112 -225 5 0 18 15 29 33 19 32 82 87 82 71 0 -5 -14 -22 -31 -40
-28 -28 -29 -33 -15 -47 18 -17 97 -33 121 -23 16 6 19 12 29 59 6 26 7 27 34
13 15 -8 38 -26 52 -41 14 -14 35 -36 48 -49 12 -13 22 -28 22 -33 0 -10 35
-42 72 -67 14 -9 28 -12 37 -7 11 7 6 36 -31 157 -43 147 -45 149 -84 171 -58
32 -67 42 -53 59 16 20 4 44 -23 44 -13 0 -36 -12 -51 -25z"/>
<path d="M4581 6881 c-6 -11 -27 -25 -47 -33 -40 -14 -65 -50 -94 -134 -24
-68 -21 -81 5 -23 18 39 50 67 63 54 4 -3 -3 -23 -15 -44 -24 -42 -22 -51 13
-51 35 0 54 11 54 30 0 10 8 27 18 39 16 20 18 21 40 5 25 -17 137 -153 145
-176 2 -7 7 -11 10 -8 8 8 -37 187 -59 232 -11 24 -30 42 -55 53 -27 13 -39
25 -41 43 -4 32 -23 39 -37 13z"/>
<path d="M5099 6766 c-12 -14 -36 -28 -53 -32 -40 -8 -82 -30 -126 -64 -19
-15 -54 -38 -77 -50 -49 -25 -55 -35 -15 -26 175 39 178 39 115 -27 l-38 -38
25 -19 c40 -31 140 -20 127 13 -2 7 0 23 4 36 8 20 14 22 42 17 17 -3 53 -8
80 -10 26 -2 53 -9 60 -14 7 -6 28 -14 47 -17 19 -3 60 -12 90 -20 30 -8 56
-13 57 -11 2 2 -12 17 -31 34 -19 16 -32 33 -29 36 3 3 -11 13 -31 21 -20 9
-39 22 -42 29 -3 8 -35 28 -72 46 -37 18 -74 35 -82 40 -8 4 -15 21 -16 39 -1
43 -9 47 -35 17z"/>
<path d="M11825 6600 c-21 -17 -50 -30 -65 -30 -33 0 -38 -6 -90 -100 -40 -74
-49 -113 -10 -47 20 33 47 53 58 42 3 -2 -7 -23 -22 -45 -14 -22 -26 -42 -26
-45 0 -3 14 -5 30 -5 30 0 49 15 92 68 30 37 60 27 169 -58 143 -111 153 -107
82 34 -52 105 -85 142 -133 150 -36 6 -40 9 -34 30 9 37 -10 39 -51 6z"/>
<path d="M2454 6488 c-3 -5 1 -20 10 -33 19 -29 132 -124 193 -163 24 -15 43
-31 43 -36 0 -5 -21 -28 -46 -52 l-47 -43 34 -20 c50 -31 73 -27 87 12 20 55
59 83 141 101 85 19 196 65 184 77 -13 13 -154 13 -186 0 -39 -15 -46 -14 -40
8 7 27 -14 35 -44 16 -25 -17 -26 -16 -67 23 -31 31 -66 50 -149 80 -59 22
-110 35 -113 30z"/>
<path d="M8538 6358 c-13 -13 -43 -30 -68 -37 -25 -7 -60 -27 -78 -44 -40 -39
-135 -182 -130 -197 2 -6 30 15 63 47 50 49 100 83 120 83 12 0 3 -24 -19 -53
-34 -45 -23 -59 45 -55 l53 3 9 43 c5 24 14 45 22 48 7 3 30 -4 51 -15 21 -12
44 -21 50 -21 6 0 21 -11 34 -25 13 -14 29 -25 36 -25 6 0 18 -7 25 -16 11
-14 10 -18 -6 -30 -10 -8 -14 -14 -7 -14 6 0 27 -17 47 -39 36 -38 110 -71
161 -71 34 0 30 -15 -16 -62 -34 -36 -38 -44 -24 -51 8 -5 24 -7 35 -4 10 3
19 1 19 -5 0 -5 12 -8 27 -6 20 2 32 12 42 33 29 63 38 68 121 59 122 -13 187
-10 218 10 7 4 34 6 59 4 31 -2 48 1 50 10 3 6 -2 12 -11 12 -41 0 -205 68
-206 86 0 14 67 92 92 105 38 20 40 -6 3 -42 -41 -40 -43 -47 -11 -59 41 -15
97 -1 115 31 16 28 49 49 76 49 8 0 37 -33 64 -72 61 -88 79 -108 101 -108 24
0 30 58 16 156 -14 101 -40 148 -84 152 -24 2 -32 8 -32 23 0 26 -26 35 -45
15 -23 -23 -63 -30 -91 -17 -38 17 -47 14 -92 -28 -36 -34 -133 -171 -144
-201 -2 -6 -15 -6 -33 -2 -25 7 -29 13 -27 35 4 33 -19 36 -60 9 -22 -14 -47
-18 -127 -17 l-100 1 -75 101 c-90 120 -121 148 -175 157 -31 5 -41 11 -41 25
0 10 -7 24 -15 31 -11 10 -19 7 -37 -12z"/>
<path d="M12265 6340 c-18 -28 -66 -48 -101 -40 -30 7 -37 5 -61 -24 -34 -40
-113 -206 -113 -237 1 -17 10 -4 31 41 37 81 55 100 91 100 34 0 37 -21 8 -65
-27 -41 -25 -47 12 -43 25 2 39 12 60 44 30 45 86 81 112 71 9 -4 24 -19 32
-34 67 -121 75 -132 88 -127 19 7 23 51 14 131 -12 105 -50 159 -104 149 -28
-6 -33 -4 -36 15 -3 25 -23 36 -33 19z"/>
<path d="M7076 6308 c11 -13 25 -35 31 -49 28 -65 131 -150 218 -180 22 -7 45
-16 50 -20 6 -3 22 -9 38 -13 26 -6 27 -7 13 -34 -8 -15 -27 -40 -42 -55 -24
-24 -26 -30 -13 -42 14 -13 51 -20 96 -17 30 3 53 29 53 62 0 33 47 79 101 99
18 7 42 17 51 22 10 5 23 9 29 9 43 0 195 108 177 125 -6 7 -143 -17 -226 -39
-53 -14 -53 -14 -62 10 -11 29 -35 31 -50 5 -16 -31 -45 -34 -97 -11 -27 12
-104 41 -173 64 -69 24 -141 53 -160 64 -45 28 -59 28 -34 0z"/>
<path d="M7906 6245 c-22 -17 -17 -29 8 -19 9 3 16 12 16 20 0 17 0 17 -24 -1z"/>
<path d="M7829 6108 c-8 -30 -8 -52 0 -78 6 -19 9 -51 8 -70 -3 -33 -4 -35
-41 -35 -42 0 -56 -16 -35 -41 9 -11 23 -13 51 -9 34 6 39 4 49 -19 7 -14 16
-26 21 -26 4 0 8 -6 8 -14 0 -19 57 -66 80 -66 32 0 39 48 16 113 -13 34 -12
38 5 47 23 13 14 38 -14 42 -17 2 -23 12 -28 48 -12 80 -51 150 -84 150 -20 0
-26 -7 -36 -42z"/>
<path d="M12153 5955 c-23 -25 127 -213 201 -252 l30 -16 -40 -36 c-22 -20
-49 -41 -60 -48 -17 -10 -17 -13 -4 -27 12 -13 22 -14 52 -6 20 6 41 17 48 25
7 9 32 24 56 34 24 11 59 31 77 45 19 14 37 26 41 26 19 0 156 63 156 71 0 6
-25 9 -57 7 -42 -2 -61 1 -70 12 -10 13 -16 12 -48 -3 -36 -17 -38 -17 -69 2
-18 11 -40 29 -50 40 -10 11 -53 34 -95 52 -42 17 -94 44 -116 58 -31 21 -44
25 -52 16z"/>
<path d="M12735 5790 c-10 -11 -13 -20 -8 -20 13 0 38 29 31 35 -3 3 -13 -4
-23 -15z"/>
<path d="M0 5690 c0 -53 3 -61 26 -77 14 -9 33 -17 42 -18 28 -2 63 -25 56
-36 -3 -6 -26 -23 -50 -38 l-43 -28 27 -26 c15 -14 47 -31 72 -37 62 -15 60
-15 102 -6 34 7 36 10 32 39 -4 26 0 36 21 50 14 10 37 20 53 22 15 2 50 6 79
10 l52 7 3 -58 3 -59 45 0 45 0 3 58 3 57 40 0 c59 0 92 -22 159 -107 33 -41
60 -70 60 -64 0 7 5 9 12 5 36 -22 -62 210 -116 273 -24 28 -34 32 -84 35 -51
3 -58 6 -70 31 -17 34 -40 35 -52 1 -9 -24 -14 -26 -48 -20 -20 3 -47 9 -58
12 -16 4 -33 -4 -62 -30 -52 -47 -94 -47 -113 0 -10 27 -27 31 -35 9 -9 -23
-43 -18 -121 20 -40 19 -75 35 -78 35 -3 0 -5 -27 -5 -60z"/>
<path d="M10267 5716 c-21 -8 -56 -26 -77 -40 -22 -14 -46 -26 -53 -26 -7 0
-28 -15 -46 -34 -28 -29 -31 -37 -22 -55 15 -27 36 -27 97 3 71 35 95 38 123
17 l23 -18 -36 -36 c-20 -20 -36 -41 -36 -46 0 -14 66 -31 122 -31 47 0 47 0
50 37 2 25 11 42 30 56 25 18 30 19 54 7 14 -8 31 -28 38 -45 7 -16 21 -36 30
-44 15 -13 19 -13 27 0 5 8 9 10 9 4 0 -5 5 -3 10 5 13 20 13 95 0 142 -15 53
-36 71 -72 62 -20 -4 -33 -2 -38 6 -6 9 -13 9 -28 1 -35 -19 -72 -12 -112 19
-43 34 -42 34 -93 16z"/>
<path d="M4221 5498 c-5 -13 -12 -35 -15 -50 -5 -21 -13 -27 -39 -30 -29 -3
-32 -6 -32 -38 0 -33 2 -35 38 -40 32 -4 42 -12 60 -45 18 -32 29 -41 54 -43
37 -4 47 11 56 80 4 31 2 49 -6 56 -7 6 -14 25 -15 43 -4 56 -23 84 -59 87
-27 3 -35 -1 -42 -20z"/>
<path d="M3384 5316 c-36 -16 -164 -137 -164 -155 0 -17 25 -41 43 -41 8 0 41
14 72 30 59 31 102 37 136 20 25 -14 25 -66 -1 -105 -26 -39 -25 -44 7 -56 19
-7 42 -7 76 2 l49 12 -5 38 c-4 28 0 42 13 54 17 15 20 15 37 -2 51 -49 156
-113 188 -113 24 0 18 -13 -24 -54 -39 -38 -39 -39 -23 -62 14 -19 27 -23 64
-24 44 0 47 2 58 34 6 19 17 39 24 45 8 7 61 13 122 14 94 2 117 6 168 30 32
15 62 27 67 27 5 0 -11 -39 -36 -86 -25 -48 -43 -89 -40 -92 3 -4 34 24 69 62
61 65 65 68 97 61 19 -4 36 -9 38 -11 2 -2 -11 -21 -29 -43 l-32 -41 28 -10
c17 -7 42 -8 64 -3 29 7 36 14 38 38 4 36 38 75 64 75 33 0 56 -19 103 -85 50
-69 75 -77 75 -21 0 72 -39 174 -83 214 -20 19 -31 22 -61 17 -29 -6 -36 -4
-36 9 0 23 -35 20 -51 -4 -13 -20 -18 -20 -66 -9 -51 12 -52 12 -89 -20 -32
-29 -42 -32 -73 -27 -20 4 -82 13 -138 21 -56 7 -106 16 -111 19 -5 3 -7 16
-5 30 7 33 -10 40 -40 16 -50 -40 -106 -17 -137 55 -24 57 -75 112 -109 120
-17 4 -44 0 -66 -9 -42 -18 -55 -14 -55 15 0 26 -29 22 -44 -6 -6 -11 -12 -22
-13 -24 -1 -2 -18 10 -38 28 -40 34 -79 39 -131 17z"/>
<path d="M6390 5313 c0 -12 91 -143 99 -143 4 0 30 -22 57 -50 27 -27 64 -57
82 -65 41 -20 42 -48 0 -87 -39 -36 -31 -58 27 -73 32 -8 39 -6 51 10 8 10 14
26 14 36 0 35 26 41 187 44 156 2 223 10 223 25 0 4 -16 11 -35 14 -20 4 -68
18 -108 31 -40 13 -96 26 -124 30 -50 7 -53 8 -53 36 0 33 -10 36 -50 12 -28
-16 -29 -16 -90 30 -34 26 -68 47 -74 47 -7 0 -54 25 -104 55 -93 56 -102 60
-102 48z"/>
<path d="M8280 5256 c0 -9 -4 -15 -8 -12 -4 2 -14 1 -22 -4 -24 -15 5 -59 50
-78 22 -9 40 -19 40 -22 0 -3 -25 -18 -55 -33 -30 -15 -55 -31 -55 -37 0 -5 9
-19 20 -30 30 -30 72 -25 120 15 l42 35 67 -58 c86 -76 130 -108 161 -117 13
-4 37 -17 52 -28 26 -19 30 -20 45 -5 15 15 13 20 -19 65 -19 26 -45 70 -59
97 -13 27 -42 68 -65 90 -34 34 -40 46 -33 64 5 12 13 22 19 22 5 0 10 6 10
14 0 21 -37 30 -71 16 -17 -8 -46 -10 -70 -6 -22 4 -58 2 -81 -4 -36 -10 -43
-9 -64 11 -21 19 -24 20 -24 5z"/>
<path d="M2950 5247 c0 -19 47 -122 72 -157 33 -47 103 -119 151 -156 l27 -22
-33 -40 c-17 -23 -38 -41 -44 -41 -40 -2 24 -89 67 -92 71 -6 77 -2 84 48 8
60 29 83 75 83 103 0 257 50 342 111 36 25 39 48 3 24 -27 -17 -90 -19 -261
-8 l-82 5 -3 32 c-4 38 -33 47 -54 17 -14 -20 -16 -20 -42 -3 -15 9 -35 27
-45 39 -22 27 -188 138 -203 135 -6 -1 -17 5 -24 13 -11 13 -30 21 -30 12z"/>
<path d="M10600 5170 c-12 -8 -11 -13 8 -33 12 -13 22 -33 22 -44 0 -23 56
-111 101 -159 l29 -30 -22 -20 c-13 -11 -36 -28 -51 -38 -34 -21 -25 -37 30
-55 53 -17 93 -2 93 35 0 18 13 40 38 65 89 90 131 150 82 119 -9 -5 -19 -5
-26 1 -9 7 -21 5 -39 -7 l-26 -17 -61 67 c-34 36 -83 80 -110 96 -55 34 -49
32 -68 20z"/>
<path d="M7185 5156 c-27 -7 -65 -20 -83 -30 -30 -15 -31 -18 -17 -33 9 -8 37
-18 63 -20 60 -6 147 -37 183 -66 39 -30 36 -59 -7 -96 -44 -35 -40 -57 11
-67 42 -7 82 7 92 33 10 28 109 122 135 128 13 3 36 1 52 -4 22 -9 31 -8 43 4
29 30 -4 125 -44 125 -8 0 -27 -7 -43 -15 -17 -9 -30 -11 -30 -5 0 17 -29 11
-50 -10 -29 -29 -41 -25 -89 25 -42 44 -44 45 -104 44 -34 0 -84 -6 -112 -13z"/>
<path d="M10982 5039 c-12 -19 -11 -19 8 -9 11 6 18 15 15 21 -8 12 -8 12 -23
-12z"/>
<path d="M10253 5019 c-18 -19 -25 -20 -52 -11 -47 16 -85 -6 -193 -114 -41
-41 -46 -54 -23 -54 8 0 15 4 15 8 0 5 23 23 51 42 45 29 54 31 76 21 l26 -12
-27 -27 c-34 -37 -33 -52 5 -52 20 0 41 10 62 30 18 16 37 30 44 30 15 0 36
-64 28 -89 -8 -26 23 -37 41 -14 7 10 14 21 14 26 0 4 6 7 14 7 9 0 15 22 20
75 8 82 4 95 -24 95 -14 0 -18 7 -17 27 3 36 -29 42 -60 12z"/>
<path d="M1390 4999 c0 -6 18 -28 40 -48 22 -20 40 -41 40 -47 0 -21 168 -114
206 -114 25 0 78 -31 66 -39 -20 -12 -63 -84 -55 -92 18 -16 137 -48 160 -43
21 6 24 11 19 33 -16 69 -19 104 -7 97 16 -10 177 -36 224 -36 20 0 37 5 37
11 0 5 4 8 8 5 13 -8 163 21 175 33 17 17 2 23 -65 24 -43 0 -88 9 -143 29
-44 16 -110 36 -147 44 -72 17 -83 25 -83 64 0 36 -33 38 -60 4 l-23 -28 -81
23 c-45 13 -84 21 -87 18 -8 -8 -139 30 -185 54 -24 12 -39 15 -39 8z"/>
<path d="M11826 4865 c-3 -9 29 -51 92 -117 54 -57 110 -120 126 -141 33 -43
29 -53 -41 -93 -35 -21 -41 -29 -33 -44 12 -22 32 -30 72 -30 23 0 40 10 68
40 20 22 41 40 47 40 14 0 58 50 76 86 9 17 45 56 82 88 36 32 63 61 60 64 -3
4 -9 2 -13 -4 -9 -14 -94 -54 -113 -54 -8 0 -24 -7 -35 -15 -32 -24 -51 -17
-87 29 -59 78 -121 119 -226 150 -67 20 -67 20 -75 1z"/>
<path d="M6480 4842 c-17 -19 -53 -37 -113 -56 -85 -27 -89 -27 -102 -9 -13
17 -14 17 -33 0 -27 -25 -72 -17 -237 38 -72 24 -132 41 -134 39 -7 -7 58 -70
87 -85 15 -8 45 -26 66 -41 21 -16 43 -28 48 -28 5 0 25 -7 45 -15 l37 -15
-40 -41 c-38 -39 -39 -41 -19 -55 13 -9 37 -14 65 -12 44 3 45 4 50 40 6 41
30 64 101 96 57 26 204 134 212 156 9 24 -5 19 -33 -12z"/>
<path d="M8442 4627 c-18 -21 16 -74 79 -127 54 -45 106 -71 172 -84 38 -9 34
-20 -18 -56 -25 -17 -45 -35 -45 -40 0 -5 18 -21 39 -36 35 -23 45 -25 96 -19
l57 8 -6 37 c-9 57 8 66 94 50 77 -14 157 -9 223 16 23 9 66 21 95 27 66 14
68 26 3 19 -50 -4 -187 23 -286 58 -45 16 -50 21 -50 48 0 17 -3 33 -7 37 -8
8 -48 -12 -48 -25 0 -24 -61 -18 -165 15 -60 19 -113 35 -117 35 -5 0 -26 11
-48 25 -45 29 -53 30 -68 12z"/>
<path d="M9247 4536 c-3 -8 5 -31 19 -51 13 -20 24 -42 24 -49 0 -23 109 -116
165 -141 30 -14 55 -29 55 -35 0 -6 -19 -28 -42 -50 l-43 -39 24 -25 c31 -33
71 -33 109 -1 17 14 33 25 36 25 3 0 27 -20 53 -45 25 -25 52 -45 58 -45 18 0
33 -20 28 -39 -2 -9 -20 -27 -39 -40 -19 -13 -37 -34 -40 -46 -3 -12 -25 -39
-50 -59 -68 -57 -56 -74 20 -26 85 54 128 56 66 3 -38 -32 -38 -49 1 -57 64
-13 83 -7 107 30 12 19 29 37 38 41 14 5 116 -66 132 -92 13 -23 115 -93 127
-89 7 3 15 -2 18 -10 8 -20 34 -21 52 -2 13 12 9 24 -27 88 -24 40 -47 76 -52
79 -16 12 33 77 66 88 17 6 67 11 112 12 116 0 279 22 284 37 2 7 -5 12 -19
12 -12 0 -53 9 -92 21 -38 11 -79 22 -90 25 -28 5 -28 5 -4 49 19 33 28 40 57
43 l35 2 -24 -20 c-13 -11 -32 -20 -42 -20 -10 0 -19 -7 -19 -15 0 -34 128
-66 139 -34 2 7 18 26 35 42 17 15 43 39 57 53 l27 26 46 -27 c26 -15 61 -31
79 -35 18 -4 42 -10 54 -14 19 -6 22 -4 16 10 -5 13 -3 15 8 9 8 -5 -6 14 -31
42 -25 27 -64 73 -87 101 -26 31 -62 59 -92 74 -45 21 -50 26 -51 56 0 34 -14
41 -39 18 -31 -26 -104 -43 -168 -38 -57 4 -63 3 -63 -15 0 -11 11 -30 25 -43
l24 -23 -21 -31 c-40 -59 -47 -60 -92 -12 -34 37 -51 46 -100 56 -32 6 -69 10
-83 7 l-24 -4 23 21 c20 19 21 21 4 24 -18 4 -48 -27 -40 -40 7 -11 -4 -10
-24 1 -18 10 -114 19 -200 20 -51 1 -53 2 -50 29 3 23 -1 27 -23 30 -14 2 -31
-4 -39 -12 -7 -9 -26 -16 -42 -16 -34 0 -256 108 -310 151 -41 33 -53 36 -61
15z m653 -274 c0 -22 27 -39 76 -48 21 -4 59 -16 84 -28 l45 -21 -80 -3 c-49
-2 -81 1 -83 8 -5 14 -38 13 -62 -2 -21 -14 -56 1 -113 49 l-28 23 28 11 c15
6 43 12 62 14 18 2 36 6 39 9 12 13 32 5 32 -12z m268 -143 c10 -15 10 -25 3
-32 -11 -11 -81 -11 -114 -1 -17 5 -17 7 5 22 12 9 32 18 42 19 11 2 22 6 25
8 10 11 27 4 39 -16z m-118 -150 c0 -17 -18 -18 -34 0 -16 17 -15 18 9 14 14
-3 25 -9 25 -14z"/>
<path d="M1513 4470 c-24 -10 -43 -23 -43 -27 0 -5 -24 -23 -53 -40 -58 -35
-88 -63 -68 -63 7 0 9 -5 5 -11 -4 -7 0 -9 12 -5 11 3 35 8 54 11 19 3 55 10
80 16 41 11 50 9 95 -13 l49 -25 -42 -27 c-47 -29 -50 -38 -24 -63 34 -35 68
-49 124 -52 l57 -3 -6 55 c-3 30 -1 57 4 60 19 12 89 -19 118 -52 17 -18 38
-42 47 -52 9 -9 21 -26 26 -36 6 -10 20 -19 32 -20 21 -2 22 1 18 60 -6 71
-39 166 -73 205 -20 23 -30 27 -74 25 -43 -1 -51 2 -51 17 0 33 -12 50 -35 50
-13 0 -25 -7 -29 -15 -8 -21 -33 -19 -63 5 -33 26 -104 26 -160 0z"/>
<path d="M5625 4381 c-3 -6 -1 -19 5 -30 25 -48 137 -161 214 -217 l29 -21
-43 -47 -43 -46 36 -15 c20 -8 52 -15 72 -15 33 0 35 2 35 34 0 51 33 81 115
106 78 23 157 60 162 77 5 13 -145 11 -184 -2 -19 -6 -23 -4 -23 12 0 31 -11
34 -41 12 l-29 -20 -57 44 c-46 35 -145 92 -235 135 -3 2 -9 -2 -13 -7z"/>
<path d="M7146 4339 c-92 -15 -123 -38 -98 -75 4 -6 34 -14 67 -18 72 -9 159
-46 175 -75 16 -32 3 -61 -31 -68 -16 -3 -27 -9 -24 -13 3 -4 -2 -13 -10 -20
-23 -19 -18 -28 28 -51 23 -12 54 -31 68 -43 23 -20 24 -24 12 -43 -13 -19
-12 -20 21 -18 33 3 37 0 75 -61 23 -36 41 -68 41 -72 0 -4 -23 -17 -50 -30
-28 -12 -50 -26 -50 -31 0 -5 14 -21 31 -35 21 -18 42 -26 70 -26 35 0 41 4
55 33 9 18 29 40 44 49 16 9 42 35 57 57 22 31 39 44 79 55 61 19 104 50 104
77 0 16 -7 19 -41 19 -24 0 -38 4 -34 10 10 16 47 12 80 -8 77 -47 147 -82
155 -77 5 3 11 1 15 -5 3 -5 11 -10 16 -10 6 0 7 4 4 10 -3 6 1 7 9 4 21 -8
20 2 -6 45 -37 60 -86 117 -128 146 -35 24 -43 26 -71 16 -18 -6 -33 -11 -34
-11 -2 0 -5 9 -8 20 -3 11 -10 20 -16 20 -6 0 -19 -9 -28 -20 -22 -26 -57 -25
-100 1 -32 20 -35 20 -75 4 -23 -9 -54 -25 -69 -36 -22 -16 -32 -17 -58 -8
-17 6 -31 16 -31 22 1 7 19 32 40 57 l40 45 38 -22 39 -22 16 29 c9 15 17 37
17 49 0 30 -21 70 -39 75 -32 10 -100 0 -119 -17 -10 -9 -22 -17 -26 -17 -5 0
-29 23 -55 50 -45 48 -49 50 -97 49 -27 -1 -71 -5 -98 -10z m428 -362 l30 -13
-25 -22 -24 -23 -17 22 c-36 43 -19 59 36 36z"/>
<path d="M3050 4051 c0 -20 83 -99 127 -122 26 -13 50 -27 53 -30 3 -3 31 -16
63 -29 71 -30 74 -53 9 -89 -46 -25 -84 -74 -75 -97 7 -18 89 -13 132 9 33 17
35 16 67 -8 40 -30 50 -63 35 -106 -6 -18 -11 -36 -11 -40 0 -16 40 -10 81 12
34 17 40 24 35 43 -3 13 1 31 9 42 8 10 15 27 15 36 0 21 56 62 65 48 3 -5 33
-10 65 -10 51 0 60 3 65 21 12 37 -55 89 -114 89 -21 0 -43 -11 -70 -35 -31
-28 -40 -32 -45 -20 -7 19 -33 19 -43 0 -7 -12 -15 -9 -43 19 -26 28 -31 38
-21 49 6 8 62 40 125 71 63 31 134 75 158 97 37 35 38 38 9 18 -19 -13 -66
-28 -110 -35 -42 -7 -90 -16 -107 -19 -27 -6 -32 -4 -37 15 l-6 22 -36 -28
-36 -27 -172 56 c-182 61 -187 62 -187 48z"/>
<path d="M4655 3950 c-14 -22 227 -172 298 -185 43 -8 46 -23 18 -78 -21 -41
-14 -52 27 -42 35 9 52 23 52 45 0 33 49 78 107 100 67 25 246 120 239 127 -3
3 -15 -2 -28 -11 -15 -10 -44 -16 -85 -16 -34 0 -74 -5 -90 -11 -15 -6 -48
-13 -73 -15 -25 -1 -59 -6 -76 -9 -22 -5 -43 -1 -73 15 -23 11 -91 32 -152 45
-60 13 -118 29 -128 35 -24 12 -28 13 -36 0z"/>
<path d="M5592 3885 c-54 -24 -143 -87 -139 -99 2 -6 13 -10 23 -8 10 1 53 5
94 7 68 5 78 3 103 -17 l28 -23 -24 -45 c-23 -43 -26 -45 -66 -43 -22 1 -59
12 -81 24 -54 31 -72 15 -34 -30 15 -18 37 -37 48 -42 12 -5 41 -25 66 -43 25
-19 50 -35 56 -35 6 -1 17 -7 23 -15 6 -7 38 -19 70 -26 59 -12 59 -13 50 -39
-6 -14 -24 -41 -42 -59 -37 -38 -31 -47 39 -56 57 -7 68 0 78 51 12 52 35 59
201 66 126 4 161 9 219 30 37 14 73 31 80 37 8 10 6 10 -11 1 -31 -16 -111
-14 -174 6 -30 9 -90 21 -134 27 -44 7 -79 16 -78 21 1 6 3 16 5 23 2 8 -4 19
-13 25 -13 8 -24 5 -49 -17 -37 -30 -62 -29 -137 7 -38 19 -41 23 -36 51 8 43
22 58 52 54 19 -2 29 -11 37 -36 6 -19 16 -37 23 -41 6 -4 9 -15 5 -24 -4 -12
0 -15 15 -14 26 2 41 43 41 116 0 75 -18 101 -71 101 -32 0 -39 3 -39 19 0 27
-15 34 -30 16 -17 -21 -24 -19 -72 15 -45 33 -76 37 -126 15z"/>
<path d="M9525 3683 c-9 -69 -13 -76 -33 -68 -45 19 -118 17 -167 -5 -28 -12
-65 -28 -82 -36 -18 -7 -33 -20 -33 -28 0 -12 23 -15 131 -15 75 0 136 -4 141
-9 7 -7 7 -21 -1 -43 -6 -17 -11 -38 -11 -46 0 -23 59 14 72 45 5 15 16 39 24
54 18 33 17 86 -1 118 -8 14 -14 37 -15 53 0 45 -18 31 -25 -20z"/>
<path d="M8506 3661 c-4 -5 -31 -15 -62 -22 -49 -11 -62 -20 -115 -77 -32 -36
-57 -67 -55 -70 3 -2 27 8 55 24 60 32 77 28 26 -7 -42 -29 -40 -41 9 -53 48
-13 90 2 94 32 8 51 62 30 139 -52 23 -25 55 -53 70 -63 15 -10 47 -32 70 -49
23 -18 47 -34 54 -36 16 -5 4 -41 -28 -78 -29 -34 -28 -36 8 -45 22 -6 35 3
91 57 77 73 88 92 90 150 1 30 11 58 35 93 20 31 33 61 32 80 0 16 -3 23 -6
15 -12 -31 -84 -129 -109 -149 -35 -28 -53 -26 -94 7 -19 15 -52 36 -74 47
-21 11 -57 44 -79 73 -25 33 -55 59 -77 68 -27 11 -36 21 -36 37 1 22 -27 36
-38 18z"/>
<path d="M11070 3629 c-14 -10 -61 -26 -105 -34 -44 -8 -98 -19 -120 -25 -22
-5 -63 -10 -92 -10 -41 0 -51 -3 -47 -14 7 -18 151 -40 212 -32 l47 6 -31 -29
c-18 -16 -40 -33 -50 -39 -29 -16 -7 -27 54 -26 39 0 57 4 60 14 13 39 59 68
118 75 64 7 203 47 244 70 24 14 22 14 -36 15 -34 0 -95 3 -137 6 -66 6 -77
10 -77 25 0 24 -8 23 -40 -2z"/>
<path d="M9030 3600 c0 -5 5 -10 11 -10 5 0 7 5 4 10 -3 6 -8 10 -11 10 -2 0
-4 -4 -4 -10z"/>
<path d="M12236 3182 c-8 -14 51 -72 74 -72 12 0 19 -4 16 -9 -9 -13 127 -71
183 -78 28 -3 51 -8 51 -12 0 -3 -19 -25 -42 -49 -41 -42 -42 -44 -24 -58 11
-8 37 -14 58 -14 32 0 41 5 57 31 37 61 53 65 164 43 l27 -6 0 65 c0 64 -1 66
-29 72 -27 6 -29 9 -24 41 5 28 3 34 -13 34 -10 0 -28 -10 -40 -21 -23 -22
-25 -22 -181 -9 -105 8 -174 18 -208 31 -57 21 -62 22 -69 11z"/>
<path d="M1850 3096 c0 -25 128 -105 203 -127 l47 -13 -35 -33 c-19 -17 -35
-41 -35 -51 0 -17 36 -60 46 -55 2 1 10 0 18 -3 30 -12 52 2 74 48 l22 47 43
-28 c23 -15 58 -36 77 -47 19 -10 42 -24 50 -31 8 -6 50 -20 93 -31 l77 -19
-6 21 c-3 12 -15 28 -27 36 -12 8 -70 63 -129 121 -71 70 -108 113 -108 128 0
23 -28 29 -48 9 -9 -9 -22 -8 -54 2 -24 7 -79 14 -123 16 -44 2 -104 5 -132 8
-29 3 -53 4 -53 2z"/>
<path d="M10029 2748 c-36 -39 -99 -158 -99 -188 0 -12 7 -20 17 -20 9 0 25
-7 35 -16 21 -19 82 -24 116 -10 13 5 30 25 37 43 24 57 40 44 130 -102 36
-58 46 -67 62 -54 8 7 12 18 9 25 -3 7 -1 16 4 19 13 8 13 83 0 160 -10 64
-37 99 -84 111 -19 4 -26 13 -26 29 0 13 -6 25 -14 28 -18 7 -56 -3 -56 -14 0
-12 -33 -12 -45 0 -28 26 -55 22 -86 -11z m-25 -155 c-24 -19 -30 -20 -32 -7
-5 23 16 43 40 36 21 -5 20 -6 -8 -29z"/>
<path d="M7387 2723 c-13 -12 -7 -48 13 -86 24 -45 19 -81 -11 -72 -13 5 -19
2 -19 -10 0 -15 7 -16 53 -10 28 4 71 15 95 25 41 19 42 20 42 69 0 55 -16 67
-49 36 -15 -12 -21 -10 -60 20 -45 36 -53 40 -64 28z"/>
<path d="M873 2533 c-9 -3 -5 -15 12 -37 14 -18 25 -36 25 -40 0 -4 -42 -5
-92 -2 -51 3 -86 3 -78 -1 8 -3 17 -9 20 -14 3 -4 44 -27 92 -52 48 -25 104
-58 124 -73 39 -30 37 -34 -28 -48 -28 -6 -28 -6 -11 -40 17 -38 77 -76 117
-76 21 0 26 5 26 24 0 14 5 37 10 51 9 24 14 26 43 20 43 -10 44 -11 18 -39
-27 -28 -22 -41 16 -49 46 -9 83 3 89 28 l6 23 65 -19 c36 -10 70 -23 77 -28
7 -6 17 -6 26 0 12 8 8 15 -23 42 -20 17 -37 36 -37 41 0 4 38 6 85 3 59 -3
93 0 110 9 14 7 43 16 63 20 31 6 90 34 70 34 -3 0 -50 9 -103 20 -53 11 -130
20 -171 20 -68 0 -74 2 -74 20 0 28 -27 36 -49 16 -24 -22 -26 -22 -104 25
-72 43 -303 130 -324 122z"/>
<path d="M7445 2352 c-16 -8 -47 -14 -68 -14 -30 2 -48 -5 -77 -28 -21 -17
-42 -30 -47 -30 -4 0 -25 11 -46 25 -32 22 -38 24 -43 10 -4 -9 5 -30 21 -50
l26 -36 -23 -20 c-20 -18 -21 -20 -3 -14 43 15 51 15 70 1 16 -12 18 -17 8
-27 -32 -33 4 -62 73 -61 24 1 46 -3 49 -8 4 -6 -5 -10 -18 -10 -47 0 -87 -12
-87 -27 0 -26 32 -84 54 -98 51 -32 64 -29 88 19 24 50 44 58 72 27 9 -10 36
-26 59 -36 23 -9 58 -24 77 -32 35 -15 166 -43 201 -43 35 0 19 28 -33 58 -79
44 -138 114 -191 225 -42 87 -50 98 -78 104 -29 6 -30 7 -24 44 6 34 4 39 -12
38 -10 -1 -31 -8 -48 -17z"/>
<path d="M8609 2352 c-13 -9 -43 -27 -65 -40 -39 -21 -43 -21 -73 -6 -48 24
-89 11 -192 -58 -151 -102 -145 -140 11 -76 78 33 105 39 133 34 35 -7 36 -8
25 -34 -7 -15 -18 -35 -27 -45 -40 -48 36 -23 122 40 26 19 50 45 53 58 6 25
43 40 76 30 25 -8 58 20 58 50 0 29 -40 65 -72 65 -14 0 -36 -8 -49 -18z"/>
<path d="M2033 2334 c-62 -32 -110 -70 -101 -79 3 -4 50 -9 104 -11 145 -6
177 -35 109 -100 l-35 -33 28 -19 c17 -12 47 -20 80 -21 l52 -2 0 39 c0 26 7
45 20 57 20 18 21 18 50 -3 16 -12 32 -22 36 -22 3 0 22 -13 41 -30 18 -16 38
-30 42 -30 13 0 21 38 21 96 0 44 -5 57 -30 84 -27 29 -34 32 -70 26 -36 -6
-40 -4 -40 14 0 23 -21 26 -51 8 -17 -11 -23 -10 -38 8 -27 33 -55 44 -113 44
-39 0 -69 -8 -105 -26z"/>
<path d="M10878 2243 c21 -38 84 -79 167 -107 18 -7 17 -10 -15 -37 -29 -24
-32 -30 -20 -39 19 -12 48 -4 76 21 11 11 25 19 31 19 6 0 39 19 74 43 35 24
82 51 104 61 l40 17 -56 -5 c-34 -2 -61 0 -68 7 -7 7 -20 5 -44 -8 -28 -15
-39 -16 -68 -7 -19 7 -70 18 -113 27 -43 8 -88 17 -98 21 -17 5 -18 3 -10 -13z"/>
<path d="M11380 2238 c-26 -13 -30 -18 -14 -18 20 0 63 25 54 32 -3 2 -21 -4
-40 -14z"/>
<path d="M12690 2247 c-17 -9 -30 -10 -41 -4 -12 7 -24 4 -47 -13 -26 -20 -34
-21 -63 -11 -51 18 -102 13 -201 -19 -51 -16 -102 -30 -115 -30 -12 0 -24 -4
-27 -9 -3 -5 36 -11 87 -15 206 -14 237 -18 237 -31 0 -6 -11 -33 -24 -58 -26
-49 -25 -62 6 -46 10 5 23 7 28 4 18 -11 70 24 70 48 1 12 15 39 33 60 29 33
41 39 100 49 67 11 67 11 67 43 0 28 -4 33 -31 39 -43 8 -50 8 -79 -7z"/>
<path d="M10231 2206 c-17 -21 4 -65 52 -109 65 -60 140 -121 162 -133 29 -16
25 -29 -22 -63 -49 -36 -53 -48 -18 -56 14 -3 36 -7 49 -10 13 -3 29 1 35 9 6
7 30 21 53 32 24 10 61 33 82 51 22 18 49 33 60 33 12 0 38 9 59 20 20 11 43
20 51 20 7 0 19 7 26 15 11 13 4 15 -55 15 -51 0 -71 4 -80 16 -11 15 -14 15
-43 0 -45 -23 -64 -20 -100 18 -21 22 -62 46 -124 71 -50 20 -111 47 -134 60
-35 19 -45 21 -53 11z"/>
<path d="M10870 2045 c-7 -8 -8 -15 -2 -15 5 0 15 7 22 15 7 8 8 15 2 15 -5 0
-15 -7 -22 -15z"/>
<path d="M4580 2015 c-8 -8 -42 -17 -75 -21 -40 -4 -95 -22 -165 -54 -58 -27
-120 -54 -137 -60 -18 -7 -33 -16 -33 -20 0 -21 126 -19 177 2 15 6 33 10 39
10 6 -1 32 4 58 12 46 14 47 14 40 -7 -4 -12 -15 -34 -25 -49 -11 -14 -19 -29
-19 -33 0 -3 26 -5 57 -3 52 3 59 6 71 31 8 16 21 31 30 34 10 4 19 10 22 14
6 9 95 -14 145 -36 43 -19 191 -38 212 -27 14 8 12 12 -13 27 -16 10 -59 37
-95 60 -93 60 -141 83 -189 91 -30 5 -44 13 -47 25 -6 23 -33 25 -53 4z"/>
<path d="M3937 1816 c-6 -15 42 -98 65 -113 31 -19 125 -168 111 -176 -4 -3
-27 -8 -50 -12 -24 -4 -43 -11 -43 -15 0 -16 50 -48 69 -43 13 3 20 -2 24 -17
5 -18 11 -21 54 -18 50 3 52 6 38 54 -10 34 39 80 110 105 66 23 81 33 96 62
10 18 8 19 -43 12 -29 -4 -72 -17 -96 -30 -41 -23 -42 -23 -52 -4 -9 15 -15
17 -30 9 -15 -8 -22 -3 -43 33 -16 27 -53 62 -104 98 -100 71 -100 72 -106 55z"/>
<path d="M11147 1750 c-26 -39 -47 -75 -47 -80 0 -6 -17 -10 -39 -10 -22 0
-44 -6 -51 -15 -11 -13 -8 -15 14 -15 34 0 33 -17 -5 -68 -30 -41 -30 -42 -8
-42 35 0 108 39 131 71 12 16 27 29 33 29 6 0 20 7 31 15 16 12 17 16 5 24
-12 8 -12 13 3 36 10 14 18 39 18 54 1 28 -17 71 -31 71 -4 0 -29 -32 -54 -70z"/>
<path d="M5092 1774 c-7 -8 8 -16 52 -28 33 -10 95 -33 136 -51 41 -18 85 -36
98 -40 32 -9 27 -22 -14 -35 -41 -14 -98 -2 -176 36 -87 44 -69 -14 28 -89 27
-21 69 -47 94 -58 l45 -20 -24 -20 c-13 -11 -31 -24 -40 -29 -22 -12 -3 -29
42 -37 29 -4 40 -1 59 19 33 34 78 60 118 69 68 14 143 38 153 48 12 12 0 13
-105 13 -54 0 -58 2 -58 24 0 14 10 30 24 40 22 14 40 14 148 5 190 -16 212
-1 87 61 -60 30 -85 37 -133 38 -41 0 -62 5 -70 15 -9 13 -16 13 -43 3 -28
-11 -35 -9 -70 17 l-38 30 -151 0 c-97 0 -155 -4 -162 -11z"/>
<path d="M309 1758 c-26 -20 -29 -20 -119 -4 -52 9 -115 16 -142 16 -48 0 -48
0 -48 -34 0 -30 4 -36 38 -49 22 -9 67 -21 100 -28 34 -7 62 -16 62 -20 0 -13
-27 -28 -69 -38 -23 -5 -45 -12 -48 -15 -3 -3 8 -16 23 -30 23 -20 37 -25 66
-22 25 3 38 0 42 -10 6 -14 53 -19 93 -8 22 6 22 7 7 42 -8 21 -11 39 -6 44 6
6 40 3 83 -5 84 -17 71 -15 207 -23 71 -4 107 -3 115 5 8 8 8 11 -2 11 -7 0
-61 21 -120 46 -58 26 -133 54 -166 64 -53 15 -61 20 -65 45 -6 36 -18 39 -51
13z"/>
<path d="M9950 1715 c0 -8 5 -15 10 -15 6 0 10 -6 10 -14 0 -32 141 -138 263
-198 21 -10 35 -23 32 -29 -4 -5 -29 -21 -56 -34 -27 -14 -49 -27 -49 -29 0
-11 81 -55 112 -60 47 -9 75 6 83 43 7 34 47 56 74 41 21 -11 75 -23 111 -24
14 -1 30 -5 37 -9 17 -11 203 -1 216 12 8 8 3 11 -18 11 -17 0 -75 23 -130 50
-55 28 -117 53 -138 57 -33 5 -37 9 -35 32 2 21 -2 27 -21 29 -13 2 -28 -1
-34 -7 -17 -17 -43 -13 -95 13 -26 13 -74 31 -107 41 -33 10 -82 25 -110 33
-27 9 -53 15 -56 15 -3 -1 -19 11 -34 27 -31 32 -65 40 -65 15z"/>
<path d="M11623 1597 c4 -14 173 -86 205 -86 12 -1 22 -5 22 -10 0 -11 -43
-42 -84 -59 -37 -16 -24 -32 33 -39 28 -4 47 -1 59 9 9 7 34 21 54 30 34 16
41 16 118 -3 45 -10 91 -24 102 -30 20 -11 18 -13 -29 -38 -28 -14 -76 -49
-107 -77 -52 -49 -54 -53 -43 -78 7 -14 15 -26 18 -26 4 0 31 18 60 40 30 22
61 40 71 40 9 0 59 -40 112 -88 84 -78 126 -105 126 -81 0 6 -43 121 -70 186
-5 12 -25 33 -45 45 -38 25 -39 26 -25 48 8 12 14 13 45 1 114 -41 6 67 -135
136 -91 44 -85 39 -71 57 7 8 10 20 6 26 -8 13 -42 13 -50 0 -6 -10 -167 -7
-318 5 -44 4 -58 2 -54 -8z"/>
<path d="M5700 1565 c-7 -8 -8 -15 -2 -15 5 0 15 7 22 15 7 8 8 15 2 15 -5 0
-15 -7 -22 -15z"/>
<path d="M7030 1525 c-17 -10 -20 -14 -9 -15 9 0 24 -9 34 -20 10 -11 22 -20
27 -20 5 0 35 -18 68 -40 68 -46 120 -105 120 -136 0 -12 -18 -40 -40 -62 -25
-25 -36 -42 -28 -44 9 -3 8 -9 -5 -22 -18 -18 -61 -18 -115 -1 -20 7 -32 -2
-81 -51 -54 -56 -115 -148 -109 -166 2 -4 31 17 66 47 39 34 73 55 87 55 42 0
40 -21 -5 -64 -24 -22 -39 -41 -33 -43 5 -2 8 -14 6 -27 -5 -25 15 -36 66 -36
30 0 112 -52 146 -92 37 -44 33 -73 -15 -103 -22 -14 -40 -32 -40 -40 0 -18
84 -59 105 -51 8 3 23 21 32 41 9 19 20 35 25 35 4 0 23 14 41 30 41 36 83 39
121 9 42 -33 66 -18 66 42 0 75 -51 111 -111 79 -15 -8 -19 -7 -19 4 0 24 -18
28 -45 10 -24 -16 -27 -16 -46 2 -12 10 -28 32 -36 47 -15 29 -45 46 -103 56
-41 7 -51 33 -24 62 12 13 25 17 43 13 30 -7 71 -48 71 -71 0 -18 41 -93 51
-93 25 0 25 171 -1 228 -18 40 -21 42 -63 42 -39 0 -44 2 -43 23 1 12 9 25 19
30 11 4 21 16 24 27 4 15 14 20 38 20 39 0 62 23 91 93 21 50 24 52 92 75 58
20 71 28 75 49 3 19 -1 26 -20 34 -30 11 -95 -4 -113 -26 -7 -8 -19 -15 -28
-15 -9 0 -26 -9 -38 -21 -27 -25 -38 -20 -64 31 -24 48 -57 66 -141 79 -84 14
-109 13 -139 -4z"/>
<path d="M11526 1345 c-11 -8 -28 -15 -39 -15 -11 0 -40 -15 -66 -34 -59 -44
-162 -151 -136 -141 11 4 47 10 81 15 46 6 67 14 87 34 14 14 33 26 42 26 8 0
55 -20 103 -44 48 -25 100 -50 116 -55 19 -8 26 -16 22 -27 -3 -9 -6 -20 -6
-25 0 -5 -23 -9 -50 -9 -36 0 -52 -4 -57 -15 -3 -9 -4 -18 -1 -20 8 -9 258
-18 258 -10 0 5 -9 19 -21 31 -17 19 -19 25 -8 42 19 30 -3 92 -41 121 -36 26
-60 16 -60 -25 0 -34 -13 -30 -53 19 -19 23 -57 56 -85 72 -43 25 -50 34 -45
53 6 26 -12 29 -41 7z"/>
<path d="M12745 1218 c-22 -6 -46 -12 -53 -14 -15 -4 -43 -65 -35 -76 2 -5 14
-3 25 3 16 8 22 8 28 -2 13 -20 90 46 90 77 0 13 -3 23 -7 23 -5 -1 -26 -6
-48 -11z"/>
<path d="M5761 1160 c-40 -9 -95 -28 -121 -40 -39 -18 -46 -25 -36 -35 7 -7
24 -13 37 -13 84 -1 209 -21 247 -41 37 -19 41 -24 32 -42 -6 -11 -23 -25 -38
-31 -22 -9 -23 -12 -9 -15 9 -3 17 -11 17 -19 0 -20 75 -19 92 2 13 16 22 24
86 83 33 30 40 33 81 27 25 -3 49 -12 53 -19 6 -9 10 -9 18 3 16 24 11 73 -10
108 -25 40 -65 43 -118 7 -47 -32 -79 -32 -113 1 -26 25 -82 44 -124 43 -11 0
-53 -9 -94 -19z"/>
<path d="M2085 1111 c-3 -5 -30 -13 -61 -17 -43 -5 -66 -15 -105 -45 -48 -39
-66 -69 -31 -53 9 4 35 9 57 12 l40 4 -29 -31 c-36 -37 -29 -48 36 -57 46 -6
47 -6 62 30 15 37 39 47 50 21 3 -8 13 -15 22 -15 9 0 50 -29 91 -65 41 -36
79 -65 85 -65 23 0 -28 126 -81 198 -18 24 -39 42 -50 42 -11 0 -28 11 -39 25
-21 26 -37 32 -47 16z"/>
<path d="M2815 1021 c-10 -17 193 -188 262 -220 35 -17 68 -31 73 -31 18 0 10
-35 -16 -74 -26 -37 -26 -40 -9 -53 22 -15 69 -17 94 -3 10 5 22 24 25 42 7
33 57 98 76 98 28 0 300 201 300 221 0 6 -14 -1 -31 -15 -17 -14 -37 -26 -45
-26 -22 0 -133 -40 -188 -67 l-49 -25 -18 23 c-17 23 -18 23 -39 4 -28 -25
-45 -22 -123 19 -34 19 -78 37 -97 41 -52 11 -143 41 -178 59 -17 9 -33 12
-37 7z"/>
<path d="M200 950 c-50 -28 -148 -120 -133 -126 9 -4 9 -11 1 -30 -19 -40 9
-50 41 -15 41 43 86 62 139 59 56 -4 66 -24 33 -69 -12 -15 -21 -33 -21 -38 0
-12 57 -24 96 -19 25 3 29 8 36 47 4 24 13 49 19 57 29 35 151 1 185 -51 25
-38 47 -33 42 10 -2 19 0 35 4 35 18 0 5 28 -37 82 -51 66 -76 76 -130 54 -48
-20 -52 -20 -60 4 -3 11 -13 20 -20 20 -8 0 -19 -9 -25 -20 -14 -25 -31 -25
-72 0 -40 24 -53 24 -98 0z"/>
<path d="M4325 856 c-52 -24 -133 -92 -122 -102 4 -4 34 -1 67 5 71 14 110 8
136 -20 18 -20 18 -21 -24 -61 -35 -32 -41 -42 -31 -54 19 -23 68 -17 105 14
61 50 92 72 101 72 5 0 31 -14 57 -31 26 -17 49 -29 52 -26 3 3 8 30 11 61 7
65 -14 111 -47 101 -10 -3 -28 0 -39 7 -17 10 -25 10 -41 0 -31 -19 -46 -15
-74 23 -22 29 -33 35 -64 35 -20 0 -60 -11 -87 -24z"/>
<path d="M11542 626 c-17 -19 -33 -47 -36 -63 -5 -22 -13 -28 -33 -30 -31 -1
-60 -32 -41 -44 6 -4 22 -3 35 2 14 5 40 9 59 9 40 0 93 20 112 43 11 13 10
16 -7 22 -14 4 -21 15 -21 31 0 29 -16 64 -29 64 -5 0 -22 -15 -39 -34z"/>
<path d="M6375 623 c-66 -34 -103 -69 -171 -169 -62 -90 -70 -121 -14 -50 29
36 42 45 75 48 22 3 63 19 92 37 50 31 53 31 88 17 19 -8 71 -42 114 -76 118
-91 145 -79 65 31 -72 99 -114 139 -146 139 -23 0 -28 4 -28 25 0 31 -12 31
-75 -2z m-85 -106 c0 -2 -9 -12 -20 -22 -24 -21 -27 -14 -4 9 15 15 24 20 24
13z"/>
<path d="M8507 635 c-21 -8 -57 -14 -80 -13 -35 2 -55 -6 -115 -45 -39 -25
-90 -56 -112 -67 -22 -11 -40 -25 -40 -30 0 -6 1 -10 3 -10 9 1 109 31 142 44
45 17 95 21 95 7 0 -5 -16 -18 -35 -30 -38 -22 -41 -29 -22 -55 8 -11 32 -19
69 -23 l56 -6 7 31 c3 17 13 36 21 43 16 13 17 12 187 -123 94 -75 115 -89
103 -69 -4 5 -2 11 3 13 8 3 -58 121 -119 214 -11 17 -41 42 -66 54 -28 15
-43 29 -40 37 6 15 -3 43 -13 42 -3 0 -23 -7 -44 -14z"/>
<path d="M9819 603 c-8 -14 -20 -18 -44 -15 -27 3 -51 -7 -128 -57 -51 -34
-100 -61 -107 -61 -10 0 -11 -3 -3 -11 8 -8 26 -4 68 15 77 35 91 33 32 -5
-47 -29 -48 -31 -32 -50 14 -15 26 -18 59 -13 23 4 48 12 56 20 8 7 27 15 41
19 23 6 35 -1 80 -47 67 -66 141 -128 152 -127 5 1 22 -12 38 -27 35 -34 38
-21 5 26 -12 19 -29 53 -36 75 -27 83 -59 142 -93 172 -25 22 -37 41 -39 64
-3 39 -30 51 -49 22z"/>
<path d="M2 438 l3 -133 27 -3 c26 -3 89 35 152 93 26 24 32 25 55 15 21 -10
27 -9 38 6 29 40 8 103 -29 83 -10 -5 -23 -7 -28 -4 -5 3 -23 -1 -39 -10 -31
-15 -31 -15 -55 24 -18 28 -34 41 -58 46 -18 4 -41 9 -51 12 -16 4 -17 -5 -15
-129z"/>
<path d="M6940 497 c0 -8 9 -22 20 -32 11 -10 20 -23 20 -30 0 -7 48 -64 106
-129 l105 -116 -28 -28 c-16 -15 -38 -32 -48 -39 -19 -11 -19 -13 10 -37 43
-36 90 -35 110 3 8 17 25 37 37 45 25 18 93 22 103 6 12 -19 44 -11 50 12 8
31 97 91 129 86 15 -2 34 6 50 21 27 25 37 53 12 32 -11 -10 -16 -8 -21 8 -12
39 -30 44 -81 22 -60 -27 -75 -26 -104 3 -30 33 -66 39 -139 26 -57 -10 -64
-9 -89 10 -15 12 -64 43 -110 70 -45 26 -91 55 -101 64 -21 20 -31 20 -31 3z"/>
<path d="M5441 324 c-19 -13 -42 -24 -53 -24 -37 0 -85 -28 -129 -76 -24 -27
-57 -61 -73 -77 -40 -39 -26 -45 26 -10 35 24 98 53 114 53 13 0 -2 -23 -37
-58 -22 -23 -38 -46 -34 -52 3 -5 -6 -21 -22 -35 l-28 -26 39 16 c21 8 59 15
85 15 49 0 71 13 71 41 0 14 19 29 36 29 11 0 1 -27 -21 -55 -27 -37 -24 -45
16 -45 19 0 39 11 61 34 l33 34 51 -44 c43 -36 59 -44 93 -44 31 0 41 4 41 16
0 15 2 15 25 0 13 -9 36 -16 50 -16 24 0 22 5 -41 80 -37 44 -75 82 -85 85
-29 10 -68 45 -63 58 2 7 -15 19 -45 30 -46 16 -50 20 -53 54 -4 45 -14 48
-57 17z"/>
</g>
</svg>
